<mxfile host="65bd71144e">
    <diagram id="q9-aCokO7fz_9qvoJ59M" name="Page-1">
        <mxGraphModel dx="621" dy="392" grid="1" gridSize="10" guides="1" tooltips="1" connect="1" arrows="1" fold="1" page="1" pageScale="1" pageWidth="850" pageHeight="1100" math="0" shadow="0">
            <root>
                <mxCell id="0"/>
                <mxCell id="1" parent="0"/>
                <mxCell id="pmyzb8hWt2OGAyiLMPu_-1" value="" style="rounded=0;whiteSpace=wrap;html=1;" parent="1" vertex="1">
                    <mxGeometry x="110" y="40" width="960" height="960" as="geometry"/>
                </mxCell>
                <mxCell id="pmyzb8hWt2OGAyiLMPu_-3" value="&lt;font style=&quot;font-size: 24px&quot;&gt;&amp;nbsp; &amp;nbsp; &amp;nbsp;Scrum Board with Analytics&lt;/font&gt;" style="rounded=0;whiteSpace=wrap;html=1;fillColor=#8DCCE3;align=left;" parent="1" vertex="1">
                    <mxGeometry x="110" y="40" width="960" height="100" as="geometry"/>
                </mxCell>
                <mxCell id="pmyzb8hWt2OGAyiLMPu_-5" value="Scrum Board" style="rounded=0;whiteSpace=wrap;html=1;fillColor=#FFFFFF;fontColor=#000000;strokeColor=#000000;" parent="1" vertex="1">
                    <mxGeometry x="770" y="70" width="80" height="30" as="geometry"/>
                </mxCell>
                <mxCell id="pmyzb8hWt2OGAyiLMPu_-6" value="Analytics" style="rounded=0;whiteSpace=wrap;html=1;fillColor=#FFFFFF;fontColor=#000000;shadow=0;strokeColor=#000000;" parent="1" vertex="1">
                    <mxGeometry x="870" y="70" width="80" height="30" as="geometry"/>
                </mxCell>
                <mxCell id="pmyzb8hWt2OGAyiLMPu_-7" value="User &lt;br&gt;Sign In/Out" style="rounded=0;whiteSpace=wrap;html=1;fillColor=#FFFFFF;fontColor=#000000;strokeColor=#000000;" parent="1" vertex="1">
                    <mxGeometry x="970" y="70" width="80" height="30" as="geometry"/>
                </mxCell>
                <mxCell id="pmyzb8hWt2OGAyiLMPu_-21" value="" style="rounded=0;whiteSpace=wrap;html=1;fontSize=12;fillColor=#FFFFFF;" parent="1" vertex="1">
                    <mxGeometry x="130" y="150" width="680" height="160" as="geometry"/>
                </mxCell>
                <mxCell id="pmyzb8hWt2OGAyiLMPu_-20" value="Create New Task" style="rounded=0;whiteSpace=wrap;html=1;fontSize=12;fillColor=#FFFFFF;fontColor=#171717;labelBackgroundColor=none;labelBorderColor=default;strokeColor=#000000;" parent="1" vertex="1">
                    <mxGeometry x="130" y="150" width="110" height="40" as="geometry"/>
                </mxCell>
                <mxCell id="pmyzb8hWt2OGAyiLMPu_-22" value="New Task Form" style="rounded=0;whiteSpace=wrap;html=1;fontSize=12;fillColor=#FFFFFF;fontColor=#000000;shadow=0;strokeColor=#000000;" parent="1" vertex="1">
                    <mxGeometry x="250" y="170" width="460" height="120" as="geometry"/>
                </mxCell>
                <mxCell id="pmyzb8hWt2OGAyiLMPu_-24" value="Post" style="rounded=0;whiteSpace=wrap;html=1;fontSize=12;fillColor=#FFFFFF;fontColor=#000000;strokeColor=#000000;" parent="1" vertex="1">
                    <mxGeometry x="740" y="260" width="50" height="30" as="geometry"/>
                </mxCell>
                <mxCell id="pmyzb8hWt2OGAyiLMPu_-25" value="" style="rounded=0;whiteSpace=wrap;html=1;fontSize=12;fillColor=#FFFFFF;" parent="1" vertex="1">
                    <mxGeometry x="140" y="340" width="170" height="600" as="geometry"/>
                </mxCell>
                <mxCell id="pmyzb8hWt2OGAyiLMPu_-30" value="" style="rounded=0;whiteSpace=wrap;html=1;fontSize=12;fillColor=#FFFFFF;" parent="1" vertex="1">
                    <mxGeometry x="320" y="340" width="170" height="600" as="geometry"/>
                </mxCell>
                <mxCell id="pmyzb8hWt2OGAyiLMPu_-31" value="" style="rounded=0;whiteSpace=wrap;html=1;fontSize=12;fillColor=#FFFFFF;" parent="1" vertex="1">
                    <mxGeometry x="500" y="340" width="170" height="600" as="geometry"/>
                </mxCell>
                <mxCell id="pmyzb8hWt2OGAyiLMPu_-32" value="" style="rounded=0;whiteSpace=wrap;html=1;fontSize=12;fillColor=#FFFFFF;" parent="1" vertex="1">
                    <mxGeometry x="860" y="340" width="170" height="600" as="geometry"/>
                </mxCell>
                <mxCell id="pmyzb8hWt2OGAyiLMPu_-33" value="" style="rounded=0;whiteSpace=wrap;html=1;fontSize=12;fillColor=#FFFFFF;" parent="1" vertex="1">
                    <mxGeometry x="680" y="340" width="170" height="600" as="geometry"/>
                </mxCell>
                <mxCell id="pmyzb8hWt2OGAyiLMPu_-34" value="BACKLOG" style="rounded=0;whiteSpace=wrap;html=1;fontSize=12;fillColor=#9EDBD9;" parent="1" vertex="1">
                    <mxGeometry x="140" y="340" width="170" height="40" as="geometry"/>
                </mxCell>
                <mxCell id="pmyzb8hWt2OGAyiLMPu_-35" value="TO DO" style="rounded=0;whiteSpace=wrap;html=1;fontSize=12;fillColor=#9EDBD9;" parent="1" vertex="1">
                    <mxGeometry x="320" y="340" width="170" height="40" as="geometry"/>
                </mxCell>
                <mxCell id="pmyzb8hWt2OGAyiLMPu_-36" value="IN PROGRESS" style="rounded=0;whiteSpace=wrap;html=1;fontSize=12;fillColor=#9EDBD9;" parent="1" vertex="1">
                    <mxGeometry x="500" y="340" width="170" height="40" as="geometry"/>
                </mxCell>
                <mxCell id="pmyzb8hWt2OGAyiLMPu_-37" value="REVIEW" style="rounded=0;whiteSpace=wrap;html=1;fontSize=12;fillColor=#9EDBD9;" parent="1" vertex="1">
                    <mxGeometry x="680" y="340" width="170" height="40" as="geometry"/>
                </mxCell>
                <mxCell id="pmyzb8hWt2OGAyiLMPu_-38" value="DONE" style="rounded=0;whiteSpace=wrap;html=1;fontSize=12;fillColor=#9EDBD9;" parent="1" vertex="1">
                    <mxGeometry x="860" y="340" width="170" height="40" as="geometry"/>
                </mxCell>
                <mxCell id="pmyzb8hWt2OGAyiLMPu_-39" value="Archive Completed Tasks" style="rounded=0;whiteSpace=wrap;html=1;fontSize=12;fillColor=#FFFFFF;" parent="1" vertex="1">
                    <mxGeometry x="870" y="910" width="150" height="20" as="geometry"/>
                </mxCell>
                <mxCell id="pmyzb8hWt2OGAyiLMPu_-40" value="Task&lt;br&gt;&lt;br&gt;SEE SIDE FOR DETAILS" style="rounded=0;whiteSpace=wrap;html=1;fontSize=12;fillColor=#FFFFFF;fontColor=#000000;strokeColor=#000000;" parent="1" vertex="1">
                    <mxGeometry x="150" y="390" width="150" height="70" as="geometry"/>
                </mxCell>
                <mxCell id="pmyzb8hWt2OGAyiLMPu_-50" value="Task" style="rounded=0;whiteSpace=wrap;html=1;fontSize=12;fillColor=#FFFFFF;fontColor=#000000;strokeColor=#000000;" parent="1" vertex="1">
                    <mxGeometry x="150" y="470" width="150" height="60" as="geometry"/>
                </mxCell>
                <mxCell id="pmyzb8hWt2OGAyiLMPu_-51" value="&lt;font style=&quot;font-size: 24px&quot;&gt;Task Description Here&lt;br&gt;&lt;br&gt;&lt;/font&gt;" style="rounded=0;whiteSpace=wrap;html=1;fontSize=12;fillColor=#FFFFFF;align=center;fontColor=#000000;" parent="1" vertex="1">
                    <mxGeometry x="1240" y="320" width="390" height="210" as="geometry"/>
                </mxCell>
                <mxCell id="pmyzb8hWt2OGAyiLMPu_-53" value="" style="shape=flexArrow;endArrow=classic;html=1;rounded=0;fontSize=18;strokeColor=#000000;" parent="1" edge="1">
                    <mxGeometry width="50" height="50" relative="1" as="geometry">
                        <mxPoint x="1310" y="510" as="sourcePoint"/>
                        <mxPoint x="1250" y="510" as="targetPoint"/>
                        <Array as="points">
                            <mxPoint x="1270" y="510"/>
                        </Array>
                    </mxGeometry>
                </mxCell>
                <mxCell id="pmyzb8hWt2OGAyiLMPu_-56" value="" style="shape=flexArrow;endArrow=classic;html=1;rounded=0;fontSize=18;strokeColor=#000000;" parent="1" edge="1">
                    <mxGeometry width="50" height="50" relative="1" as="geometry">
                        <mxPoint x="1570" y="510" as="sourcePoint"/>
                        <mxPoint x="1625" y="510" as="targetPoint"/>
                    </mxGeometry>
                </mxCell>
                <mxCell id="pmyzb8hWt2OGAyiLMPu_-57" value="&lt;font style=&quot;font-size: 12px&quot;&gt;Owners?&lt;/font&gt;" style="rounded=0;whiteSpace=wrap;html=1;fontSize=18;fillColor=#FFFFFF;fontColor=#000000;strokeColor=#000000;" parent="1" vertex="1">
                    <mxGeometry x="1250" y="330" width="90" height="30" as="geometry"/>
                </mxCell>
                <mxCell id="2" value="Task" style="rounded=0;whiteSpace=wrap;html=1;fontSize=12;fillColor=#FFFFFF;fontColor=#000000;strokeColor=#000000;" vertex="1" parent="1">
                    <mxGeometry x="150" y="540" width="150" height="60" as="geometry"/>
                </mxCell>
                <mxCell id="3" value="Task" style="rounded=0;whiteSpace=wrap;html=1;fontSize=12;fillColor=#FFFFFF;fontColor=#000000;strokeColor=#000000;" vertex="1" parent="1">
                    <mxGeometry x="330" y="470" width="150" height="60" as="geometry"/>
                </mxCell>
                <mxCell id="4" value="Task" style="rounded=0;whiteSpace=wrap;html=1;fontSize=12;fillColor=#FFFFFF;fontColor=#000000;strokeColor=#000000;" vertex="1" parent="1">
                    <mxGeometry x="510" y="395" width="150" height="60" as="geometry"/>
                </mxCell>
                <mxCell id="5" value="Task" style="rounded=0;whiteSpace=wrap;html=1;fontSize=12;fillColor=#FFFFFF;fontColor=#000000;strokeColor=#000000;" vertex="1" parent="1">
                    <mxGeometry x="330" y="395" width="150" height="60" as="geometry"/>
                </mxCell>
                <mxCell id="6" value="Task" style="rounded=0;whiteSpace=wrap;html=1;fontSize=12;fillColor=#FFFFFF;fontColor=#000000;strokeColor=#000000;" vertex="1" parent="1">
                    <mxGeometry x="870" y="395" width="150" height="60" as="geometry"/>
                </mxCell>
                <mxCell id="7" value="Task" style="rounded=0;whiteSpace=wrap;html=1;fontSize=12;fillColor=#FFFFFF;fontColor=#000000;strokeColor=#000000;" vertex="1" parent="1">
                    <mxGeometry x="690" y="465" width="150" height="60" as="geometry"/>
                </mxCell>
                <mxCell id="8" value="Task" style="rounded=0;whiteSpace=wrap;html=1;fontSize=12;fillColor=#FFFFFF;fontColor=#000000;strokeColor=#000000;" vertex="1" parent="1">
                    <mxGeometry x="690" y="395" width="150" height="60" as="geometry"/>
                </mxCell>
            </root>
        </mxGraphModel>
    </diagram>
</mxfile>